<?xml version="1.0" encoding="UTF-8"?> <svg xmlns="http://www.w3.org/2000/svg" xmlns:xlink="http://www.w3.org/1999/xlink" width="126" height="40" viewBox="0 0 126 40"><defs><path id="prefix__a" d="M0 0.158L39.239 0.158 39.239 39.748 0 39.748z"></path><path id="prefix__c" d="M0 39.748L125.595 39.748 125.595 0.158 0 0.158z"></path></defs><g fill="none" fill-rule="evenodd"><path fill="#D8127D" d="M11.112 36.557L3.99 29.89h14.374l-7.252 6.667zm0-16.244l7.252 6.667H3.99l7.122-6.667zM20.875 24.602L26.065 29.793 35.502 20.356 35.502 26.725 26.065 36.162 20.875 30.854zM9.075 11.056L3.994 5.975 3.994 3.812 6.048 3.812 11.238 8.894 16.428 3.812 18.482 3.812 18.482 5.975 13.292 11.056 18.482 16.138 18.482 18.301 16.428 18.301 11.238 13.111 6.048 18.301 3.994 18.301 3.994 16.138z"></path><g transform="translate(0 .094)"><path fill="#D8127D" d="M28.143 3.505c4.144 0 7.504 3.36 7.504 7.504s-3.36 7.503-7.504 7.503-7.503-3.359-7.503-7.503S24 3.505 28.143 3.505"></path><mask id="prefix__b" fill="#fff"><use xlink:href="#prefix__a"></use></mask><path fill="#D8127D" d="M1.252.158h36.735c.168 0 .329.034.476.096.153.063.29.156.405.271h.002c.117.117.21.255.274.409.061.147.095.308.095.476v37.086c0 .168-.034.33-.095.477-.064.153-.158.292-.272.406l-.002.002c-.114.115-.253.208-.406.272-.148.061-.31.095-.477.095H1.252c-.167 0-.329-.034-.476-.095-.154-.064-.292-.157-.406-.272l-.003-.002c-.114-.115-.207-.253-.271-.406-.062-.148-.096-.31-.096-.477V1.41c0-.168.034-.329.096-.476C.16.78.253.642.367.527L.37.525C.373.525.713.279.776.254c.147-.062.309-.096.476-.096zm.593 37.745h35.55v-35.9H1.844v35.9z" mask="url(#prefix__b)"></path><path fill="#D8127D" d="M63.22 8.62c0-.877-.278-1.54-.855-2.01-.578-.471-1.519-.707-2.844-.707h-3.059v5.432h3.059c2.48 0 3.72-.898 3.72-2.716h-.02zm.92-3.593c.983.898 1.475 2.096 1.475 3.592 0 1.497-.492 2.695-1.475 3.593-.984.899-2.502 1.348-4.577 1.348h-3.08v4.661h-2.288V3.722h5.368c2.075 0 3.614.45 4.598 1.348l-.021-.043zM71.923 8.812c.727-.428 1.518-.642 2.374-.642v2.224c-1.134 0-2.097.3-2.866.92-.77.62-1.155 1.518-1.155 2.716v4.191h-2.203v-9.88h2.203v2.16c.363-.705.92-1.283 1.647-1.71v.021z"></path><mask id="prefix__d" fill="#fff"><use xlink:href="#prefix__c"></use></mask><path fill="#D8127D" d="M76.284 18.264h2.203v-9.88h-2.203v9.88zm.043-11.847c-.32-.3-.47-.663-.47-1.112 0-.45.15-.813.47-1.09.32-.279.663-.428 1.048-.428.363 0 .706.128 1.027.406.32.278.491.641.491 1.09 0 .45-.15.813-.47 1.112-.321.3-.663.45-1.027.45-.385 0-.727-.15-1.048-.45l-.021.022zM86.591 18.221L84.838 18.221 80.39 8.342 82.87 8.342 85.736 15.334 88.644 8.342 91.018 8.342zM98.031 16.233c.6-.3 1.134-.728 1.626-1.284v-.812h-3.058c-.642 0-1.134.107-1.476.342-.342.235-.513.556-.513.962 0 .385.15.685.45.899.298.213.705.32 1.24.32.555 0 1.133-.15 1.731-.449v.022zm2.652-6.822c.792.748 1.177 1.732 1.177 2.95v6.01h-2.203v-1.54c-.406.492-.941.899-1.604 1.22-.663.32-1.347.491-2.053.491-1.048 0-1.903-.278-2.588-.834-.684-.556-1.026-1.304-1.026-2.267 0-.94.363-1.689 1.09-2.224.728-.534 1.733-.812 3.016-.812h3.165v-.193c0-.62-.193-1.112-.599-1.475-.406-.364-.962-.556-1.668-.556-.663 0-1.198.128-1.604.406-.406.278-.663.684-.77 1.219h-2.202c.128-1.09.598-1.967 1.432-2.63.835-.663 1.882-1.006 3.144-1.006 1.433 0 2.545.364 3.336 1.113l-.043.128zM113.428 14.586c0 .727-.15 1.39-.45 1.968-.299.577-.726 1.026-1.304 1.368-.577.342-1.24.514-2.01.514-1.262 0-2.224-.364-2.908-1.091-.685-.727-1.027-1.754-1.027-3.058v-4h-2.139V8.364h2.139V6.631l2.203-2.224v3.956h4.576v1.925h-4.576v3.892c0 1.454.577 2.181 1.753 2.181.492 0 .877-.171 1.177-.513.299-.343.449-.77.449-1.283h2.18l-.063.021zM117.383 12.34h5.838c-.107-.684-.427-1.24-.94-1.646-.514-.406-1.156-.62-1.925-.62-.749 0-1.39.214-1.925.62-.535.406-.877.962-1.048 1.647zm-.043 1.647c.15.77.492 1.39 1.048 1.84.556.449 1.262.684 2.096.684.77 0 1.39-.15 1.86-.45.471-.299.813-.662 1.006-1.111h2.245c-.235 1.026-.791 1.86-1.668 2.502-.877.641-2.01.962-3.4.962-1.027 0-1.946-.214-2.78-.642-.834-.427-1.497-1.026-1.968-1.796-.47-.77-.706-1.668-.706-2.673 0-.962.236-1.84.706-2.63.47-.792 1.112-1.412 1.925-1.86.813-.45 1.71-.664 2.694-.664 1.005 0 1.904.235 2.695.706.791.47 1.412 1.09 1.84 1.882.427.791.64 1.668.64 2.63v.62h-8.233zM55.286 35.264c-1.112-.855-1.69-2.074-1.753-3.635h2.266c.043.877.364 1.54.984 2.01.62.47 1.583.706 2.909.706 1.24 0 2.138-.193 2.716-.578.577-.384.855-.92.855-1.604 0-.534-.171-.94-.513-1.219-.342-.277-.77-.492-1.284-.62-.513-.128-1.218-.256-2.138-.385-1.197-.17-2.16-.363-2.908-.577-.749-.214-1.39-.62-1.925-1.198-.535-.577-.791-1.411-.791-2.48 0-.792.235-1.519.706-2.16.47-.642 1.133-1.155 1.988-1.519.856-.363 1.818-.556 2.887-.556 1.09 0 2.075.193 2.951.578.877.385 1.561.92 2.075 1.625.513.706.812 1.497.876 2.395h-2.266c-.107-.705-.45-1.283-1.048-1.732-.599-.45-1.454-.684-2.566-.684-1.048 0-1.84.17-2.374.534-.535.364-.813.834-.813 1.433 0 .492.171.877.513 1.155.343.278.75.47 1.24.599.493.128 1.177.256 2.054.384 1.219.193 2.203.407 2.951.642.748.235 1.39.642 1.925 1.24.534.6.812 1.433.812 2.524 0 1.411-.534 2.48-1.603 3.23-1.07.748-2.503 1.111-4.32 1.111-1.818 0-3.294-.428-4.406-1.283v.064zM77.055 27.16c.706.705 1.07 1.71 1.07 3.015v5.966h-2.203v-5.39c0-.833-.214-1.475-.62-1.924-.407-.449-1.006-.684-1.797-.684-.962 0-1.71.363-2.267 1.09-.556.728-.834 1.776-.834 3.144v3.785h-2.202V21.663h2.202v6.758c.407-.77.941-1.347 1.604-1.732.663-.385 1.412-.578 2.246-.578 1.197 0 2.16.364 2.865 1.07l-.064-.022zM81.01 36.227h2.203v-9.88H81.01v9.88zm.043-11.848c-.32-.3-.47-.663-.47-1.112 0-.45.15-.812.47-1.09.32-.279.663-.428 1.048-.428.363 0 .706.128 1.027.406.32.278.491.641.491 1.09 0 .45-.15.813-.47 1.113-.321.299-.663.449-1.026.449-.386 0-.728-.15-1.049-.45l-.02.022zM90.034 26.774c.727-.427 1.518-.641 2.374-.641v2.224c-1.134 0-2.096.299-2.866.92-.77.62-1.155 1.518-1.155 2.715v4.192h-2.202v-9.88h2.202v2.16c.364-.706.92-1.283 1.647-1.711v.021zM103.1 32.548c0 .727-.15 1.39-.45 1.968-.299.577-.726 1.026-1.304 1.368-.577.343-1.24.514-2.01.514-1.262 0-2.224-.364-2.908-1.09-.685-.728-1.027-1.755-1.027-3.059v-4h-2.139v-1.924h2.139v-1.732l2.203-2.224v3.956h4.576v1.925h-4.576v3.892c0 1.454.577 2.181 1.753 2.181.492 0 .877-.17 1.177-.513.299-.342.449-.77.449-1.283h2.18l-.063.021z" mask="url(#prefix__d)"></path></g></g></svg> 