<?xml version="1.0" encoding="UTF-8"?>
<!DOCTYPE svg PUBLIC "-//W3C//DTD SVG 1.1//EN" "http://www.w3.org/Graphics/SVG/1.1/DTD/svg11.dtd">
<!-- Creator: CorelDRAW 2017 -->
<svg xmlns="http://www.w3.org/2000/svg" xml:space="preserve" width="1000px" height="1000px" version="1.1" style="shape-rendering:geometricPrecision; text-rendering:geometricPrecision; image-rendering:optimizeQuality; fill-rule:evenodd; clip-rule:evenodd"
viewBox="0 0 1000 1000"
 xmlns:xlink="http://www.w3.org/1999/xlink">
 <defs>
  <style type="text/css">
   <![CDATA[
    .str1 {stroke:#2B2A29;stroke-width:3;stroke-linecap:round;stroke-linejoin:round;stroke-miterlimit:22.9256}
    .str0 {stroke:black;stroke-width:2;stroke-linecap:round;stroke-linejoin:round;stroke-miterlimit:22.9256}
    .fil0 {fill:none}
    .fil4 {fill:#FEFEFE}
    .fil3 {fill:#FEFEFE;fill-rule:nonzero}
    .fil8 {fill:#2B2A29;fill-rule:nonzero}
    .fil5 {fill:#2B2A29;fill-rule:nonzero}
    .fil1 {fill:#7F7F7F;fill-rule:nonzero}
    .fil2 {fill:#999999;fill-rule:nonzero}
    .fil6 {fill:#DB5800;fill-rule:nonzero}
    .fil7 {fill:#E34F00;fill-rule:nonzero}
   ]]>
  </style>
 </defs>
 <g id="Ebene_x0020_1">
  <metadata id="CorelCorpID_0Corel-Layer"/>
  <rect class="fil0" x="-0.001" y="-0.001" width="1000.002" height="1000.002"/>
  <polygon class="fil1" points="939.779,152.202 939.779,177.34 947.491,177.34 947.491,152.202 967.25,152.202 943.635,104.985 920.035,152.202 "/>
  <path class="fil1" d="M952.829 218.503l8.098 2.488c-1.243,4.56 -3.316,7.944 -6.208,10.161 -2.892,2.208 -6.556,3.317 -11,3.317 -5.505,0 -10.026,-1.88 -13.574,-5.64 -3.538,-3.76 -5.312,-8.899 -5.312,-15.426 0,-6.892 1.783,-12.253 5.341,-16.07 3.557,-3.819 8.242,-5.727 14.046,-5.727 5.071,0 9.188,1.504 12.35,4.502 1.89,1.774 3.297,4.319 4.242,7.645l-8.272 1.967c-0.491,-2.14 -1.513,-3.837 -3.065,-5.08 -1.562,-1.244 -3.452,-1.862 -5.67,-1.862 -3.074,0 -5.572,1.099 -7.481,3.307 -1.918,2.199 -2.872,5.766 -2.872,10.702 0,5.225 0.944,8.956 2.824,11.173 1.89,2.227 4.339,3.336 7.356,3.336 2.227,0 4.146,-0.704 5.746,-2.121 1.601,-1.417 2.757,-3.634 3.451,-6.672z"/>
  <polygon class="fil1" points="943.701,307.454 920.101,260.237 939.846,260.237 939.536,247.247 947.249,247.247 947.558,260.237 967.317,260.237 "/>
  <path class="fil2" d="M1009.317 102.88l0 1.929 -10.811 0 0 -1.929 10.811 0zm-17.297 0l0 1.929 -10.811 0 0 -1.929 10.811 0zm-17.297 0l0 1.929 -10.811 0 0 -1.929 10.811 0zm-17.298 0l0 1.929 -10.811 0 0 -1.929 10.811 0zm-17.298 0l0 1.929 -10.811 0 0 -1.929 10.811 0z"/>
  <path class="fil2" d="M971.267 102.88l-7.938 0 0 1.929 7.938 0 0 -1.929zm-14.425 0l0 1.929 -10.811 0 0 -1.929 10.811 0zm-17.297 0l0 1.929 -10.811 0 0 -1.929 10.811 0zm-17.297 0l0 1.929 -10.811 0 0 -1.929 10.811 0zm-17.298 0l0 1.929 -10.811 0 0 -1.929 10.811 0zm-17.297 0l0 1.929 -10.811 0 0 -1.929 10.811 0zm-17.298 0l0 1.929 -10.811 0 0 -1.929 10.811 0z"/>
  <path class="fil2" d="M901.405 102.88l-7.938 0 0 1.929 7.938 0 0 -1.929zm-14.425 0l0 1.929 -10.811 0 0 -1.929 10.811 0zm-17.298 0l0 1.929 -10.811 0 0 -1.929 10.811 0zm-17.296 0l0 1.929 -10.811 0 0 -1.929 10.811 0zm-17.298 0l0 1.929 -10.811 0 0 -1.929 10.811 0zm-17.298 0l0 1.929 -10.811 0 0 -1.929 10.811 0zm-17.297 0l0 1.929 -10.811 0 0 -1.929 10.811 0z"/>
  <rect class="fil0" x="-0.001" y="-0.001" width="1000.002" height="1000.002"/>
  <path class="fil3 str0" d="M253.58 957.618c7.865,-104.732 14.469,-211.417 16.539,-317.348 2.07,-105.953 -0.391,-211.209 -10.656,-313.103l0.217 -11.696 -15.113 43.837c-50.867,-17.815 -101.738,-35.62 -152.615,-53.411l0.171 -0.849c2.973,-14.821 6.765,-24.81 10.473,-34.584 2.366,-6.235 4.701,-12.386 6.757,-19.634 3.161,-11.137 5.806,-21.36 8.255,-30.819 15.15,-58.534 22.832,-88.207 92.711,-109.827 4.296,-1.329 9.219,-2.833 14.283,-4.381 14.037,-4.289 29.139,-8.905 43.368,-13.652 24.882,-8.301 46.761,-16.056 65.322,-22.886 18.602,-6.848 33.765,-12.725 45.275,-17.29 3.548,-1.408 7.76,-3.473 12.069,-5.584 6.064,-2.971 12.321,-6.037 17.318,-7.567 10.416,-3.192 27.701,-1.357 42.538,0.219 5.896,0.626 11.402,1.212 15.884,1.419l0.513 0.025c30.55,1.415 53.909,2.497 134.912,-4.461l0.32 -0.028 0.282 0.174c1.911,1.163 4.037,2.389 6.269,3.675 5.59,3.223 11.837,6.826 15.801,9.987 10.345,8.265 41.96,18.905 68.49,27.832 12.931,4.351 24.66,8.299 32.196,11.392 9.94,4.078 20.466,6.563 31.436,9.152 8.6,2.03 17.472,4.124 26.594,7.109 21.728,7.11 41.423,16.424 57.597,29.643 16.209,13.245 28.874,30.397 36.489,53.152 2.921,8.734 6.689,25.96 10.832,44.904 2.857,13.071 5.894,26.959 8.919,39.297 1.684,6.882 4.561,14.67 6.934,21.093 2.067,5.6 3.759,10.178 4.001,12.415l0.087 0.792c-50.876,17.289 -101.762,34.549 -152.63,51.856l-16.959 -43.244 0.863 9.172c-11.179,124.451 -14.622,217.418 -12.93,311.708 1.693,94.248 8.523,189.901 17.883,319.701l0.073 1.012 -1.017 0.054c-81.821,4.213 -163.1,6.668 -244.402,7.068 -81.293,0.4 -162.576,-1.252 -244.4,-5.254l-1.027 -0.049 0.077 -1.02 0 0 0.001 -0.001zm18.531 -317.31c-2.064,105.706 -8.633,212.055 -16.462,316.437 81.472,3.964 162.381,5.602 243.275,5.205 80.892,-0.4 161.806,-2.837 243.288,-7.017 -9.32,-129.258 -16.119,-224.649 -17.809,-318.797 -1.694,-94.341 1.749,-187.36 12.934,-311.869l0.368 -13.116 18.837 44.83 149.307 -50.727c-0.47,-2.242 -1.973,-6.309 -3.763,-11.159 -2.385,-6.457 -5.275,-14.285 -6.997,-21.31 -3.071,-12.529 -6.092,-26.344 -8.936,-39.344 -4.134,-18.908 -7.894,-36.101 -10.771,-44.693 -7.483,-22.367 -19.926,-39.224 -35.852,-52.239 -15.963,-13.044 -35.444,-22.251 -56.959,-29.29 -9.038,-2.957 -17.869,-5.042 -26.427,-7.061 -11.039,-2.606 -21.633,-5.107 -31.742,-9.255 -7.466,-3.064 -19.168,-7.003 -32.07,-11.344 -26.686,-8.981 -58.489,-19.684 -69.1,-28.16 -3.874,-3.092 -10.037,-6.645 -15.552,-9.825 -2.193,-1.264 -4.29,-2.473 -6.033,-3.527 -80.83,6.934 -104.241,5.851 -134.845,4.433l-0.512 -0.024c-4.565,-0.211 -10.092,-0.799 -16.009,-1.428 -14.65,-1.556 -31.719,-3.369 -41.741,-0.3 -4.848,1.484 -11.032,4.515 -17.028,7.452 -4.347,2.131 -8.596,4.212 -12.211,5.648 -11.622,4.611 -26.852,10.515 -45.322,17.311 -18.512,6.815 -40.392,14.569 -65.374,22.904 -14.185,4.73 -29.338,9.363 -43.423,13.667 -4.773,1.459 -9.427,2.882 -14.275,4.382 -68.815,21.289 -76.403,50.6 -91.367,108.419 -2.462,9.512 -5.125,19.793 -8.264,30.859 -2.08,7.33 -4.429,13.521 -6.81,19.797 -3.613,9.52 -7.304,19.248 -10.216,33.422l149.137 52.194 16.684 -44.367 1.377 14.557c10.272,101.969 12.737,207.305 10.663,313.336l0 0 0 -0.001z"/>
  <path class="fil4 str0" d="M599.784 37.447c0.164,-0.527 0.725,-0.821 1.251,-0.657 0.526,0.164 0.819,0.724 0.656,1.249 -5.188,16.637 -14.144,30.652 -26.285,41.466 -12.092,10.772 -27.345,18.364 -45.178,22.205 -30.717,6.619 -58.165,5.733 -80.949,-4.325 -21.366,-9.431 -38.596,-26.911 -50.534,-53.803 -0.222,-0.502 0.004,-1.091 0.508,-1.312 0.502,-0.222 1.089,0.005 1.311,0.506 11.721,26.404 28.604,43.548 49.519,52.782 22.378,9.878 49.418,10.73 79.73,4.2 17.485,-3.767 32.426,-11.202 44.265,-21.746 11.871,-10.574 20.628,-24.284 25.706,-40.565l0 0z"/>
  <path class="fil4 str0" d="M619.613 48.267c0.204,-0.511 0.786,-0.761 1.296,-0.554 0.511,0.204 0.76,0.786 0.554,1.297 -2.969,7.414 -6.614,14.291 -10.831,20.625 -17.704,26.584 -45.512,43.664 -76.046,51.225 -30.503,7.554 -63.74,5.606 -92.344,-5.851 -8.167,-3.273 -15.956,-7.317 -23.193,-12.14 -9.066,-6.034 -17.265,-13.692 -23.773,-22.815 -5.986,-8.392 -10.538,-18.026 -13.017,-28.782 -0.123,-0.537 0.213,-1.072 0.749,-1.196 0.537,-0.122 1.073,0.214 1.196,0.75 2.416,10.488 6.856,19.886 12.697,28.073 6.359,8.915 14.378,16.4 23.25,22.307 7.128,4.748 14.796,8.73 22.835,11.951 28.215,11.301 61.016,13.221 91.123,5.766 30.075,-7.447 57.451,-24.25 74.859,-50.391 4.145,-6.226 7.727,-12.982 10.645,-20.264l0 -0.001z"/>
  <line class="fil0 str1" x1="98.611" y1="287.652" x2="249.619" y2= "340.211" />
  <line class="fil0 str1" x1="899.634" y1="286.819" x2="750.533" y2= "338.882" />
  <polygon class="fil5" points="691.281,300.519 458.923,300.519 458.923,308.234 691.281,308.234 691.281,327.993 738.496,304.378 691.281,280.776 "/>
  <polygon class="fil5" points="257.667,304.315 304.882,280.715 304.882,300.459 411.701,300.459 411.701,308.171 304.882,308.171 304.882,327.93 "/>
  <path class="fil6" d="M388.768 402.323l0 9.034 -9.429 3.575 0 16.611 9.429 3.443 0 8.868 -41.417 -16.079 0 -8.86 41.417 -16.592zm-16.428 15.329l-15.33 5.755 15.33 5.592 0 -11.346 0 -0.001z"/>
  <polygon class="fil7" points="372.574,102.225 371.723,390.838 379.436,390.838 380.286,102.225 400.045,102.225 376.428,55.009 352.829,102.225 "/>
  <polygon class="fil7" points="375.579,960.889 351.979,913.674 371.723,913.674 371.723,452.39 379.436,452.39 379.436,913.674 399.195,913.674 "/>
  <path class="fil5" d="M420.679 284.226l16.563 0c3.288,0 5.726,0.136 7.337,0.404 1.619,0.281 3.056,0.85 4.329,1.707 1.271,0.869 2.333,2.015 3.182,3.452 0.848,1.436 1.271,3.056 1.271,4.838 0,1.929 -0.519,3.712 -1.561,5.324 -1.041,1.619 -2.458,2.823 -4.243,3.632 2.518,0.743 4.444,1.996 5.804,3.77 1.351,1.776 2.026,3.856 2.026,6.258 0,1.889 -0.434,3.72 -1.311,5.504 -0.878,1.784 -2.076,3.211 -3.598,4.281 -1.514,1.06 -3.384,1.716 -5.611,1.967 -1.389,0.145 -4.752,0.241 -10.084,0.278l-14.105 0 0 -41.415 0.001 0 0 0zm8.389 6.884l0 9.544 5.475 0c3.249,0 5.273,-0.048 6.064,-0.144 1.428,-0.165 2.555,-0.657 3.375,-1.476 0.819,-0.819 1.224,-1.889 1.224,-3.22 0,-1.282 -0.356,-2.314 -1.06,-3.114 -0.704,-0.8 -1.756,-1.282 -3.145,-1.447 -0.828,-0.095 -3.209,-0.143 -7.133,-0.143l-4.8 0zm0 16.427l0 11.106 7.751 0c3.008,0 4.926,-0.087 5.736,-0.25 1.243,-0.231 2.258,-0.781 3.036,-1.658 0.781,-0.888 1.177,-2.054 1.177,-3.529 0,-1.253 -0.299,-2.304 -0.907,-3.171 -0.597,-0.868 -1.474,-1.505 -2.611,-1.899 -1.139,-0.396 -3.615,-0.599 -7.423,-0.599l-6.759 0 0 0 0 0z"/>
  <path class="fil2" d="M1015.189 306.944l-7.938 0 0 1.928 7.938 0 0 -1.928zm-14.424 0l0 1.928 -10.811 0 0 -1.928 10.811 0zm-17.298 0l0 1.928 -10.811 0 0 -1.928 10.811 0zm-17.297 0l0 1.928 -10.811 0 0 -1.928 10.811 0zm-17.298 0l0 1.928 -10.811 0 0 -1.928 10.811 0zm-17.297 0l0 1.928 -10.811 0 0 -1.928 10.811 0zm-17.298 0l0 1.928 -10.811 0 0 -1.928 10.811 0z"/>
  <g>
   <path class="fil8" d="M782.003 104.709c0.337,-0.655 1.142,-0.913 1.796,-0.576 0.654,0.337 0.912,1.142 0.575,1.796l-2.371 -1.22zm1.189 3.61l-2.372 -1.22 1.183 -2.39 2.371 1.22 -1.182 2.39zm0 0c-0.337,0.654 -1.142,0.913 -1.796,0.576 -0.655,-0.337 -0.913,-1.142 -0.576,-1.796l2.372 1.22zm-8.086 10.872c0.316,-0.665 1.113,-0.948 1.777,-0.631 0.665,0.317 0.947,1.113 0.631,1.777l-2.408 -1.146zm-1.661 10.922l-2.471 -1.003 0.827 -2.121 3.163 -7.49 0.142 -0.308 2.408 1.146 -0.109 0.236 -3.133 7.419 -0.827 2.121zm0 0c-0.276,0.682 -1.055,1.01 -1.737,0.734 -0.682,-0.277 -1.01,-1.055 -0.734,-1.737l2.471 1.003zm-7.142 11.523c0.258,-0.689 1.028,-1.038 1.717,-0.78 0.689,0.258 1.039,1.028 0.78,1.717l-2.497 -0.937zm-0.804 11.011l-2.54 -0.811 0.659 -2.154 2.521 -7.59 0.164 -0.456 2.497 0.937 -0.141 0.392 -2.501 7.528 -0.659 2.154zm0 0c-0.224,0.7 -0.975,1.088 -1.676,0.864 -0.701,-0.223 -1.088,-0.975 -0.864,-1.675l2.54 0.811zm-6.293 12.015c0.207,-0.706 0.95,-1.11 1.656,-0.903 0.706,0.207 1.11,0.95 0.903,1.656l-2.559 -0.753zm-0.066 11.035l-2.588 -0.646 0.624 -2.603 1.971 -7.576 0.059 -0.21 2.559 0.753 -0.045 0.155 -1.957 7.523 -0.623 2.604zm0 0c-0.178,0.714 -0.903,1.149 -1.617,0.971 -0.714,-0.178 -1.149,-0.902 -0.971,-1.617l2.588 0.646zm-5.548 12.405c0.152,-0.721 0.86,-1.18 1.581,-1.028 0.72,0.151 1.18,0.86 1.028,1.581l-2.609 -0.553zm2.078 3.166l-2.609 -0.553 0.531 -2.613 2.609 0.553 -0.531 2.613zm0 0c-0.151,0.72 -0.86,1.18 -1.581,1.028 -0.72,-0.152 -1.18,-0.86 -1.028,-1.581l2.609 0.553zm-5.111 12.587c0.13,-0.725 0.824,-1.207 1.548,-1.078 0.725,0.13 1.208,0.824 1.078,1.549l-2.626 -0.471zm0.88 10.977l-2.632 -0.436 0.757 -4.766 0.995 -5.775 2.626 0.471 -0.989 5.74 -0.757 4.766zm0 0c-0.12,0.726 -0.808,1.217 -1.534,1.097 -0.726,-0.119 -1.217,-0.807 -1.098,-1.533l2.632 0.436zm-4.563 12.79c0.102,-0.73 0.778,-1.237 1.507,-1.134 0.729,0.102 1.236,0.778 1.134,1.507l-2.641 -0.373zm1.276 10.928l-2.647 -0.324 0.051 -0.435 0.87 -6.858 0.45 -3.311 2.641 0.373 -0.447 3.286 -0.866 6.834 -0.052 0.435zm0 0c-0.089,0.731 -0.755,1.25 -1.485,1.161 -0.731,-0.089 -1.251,-0.755 -1.162,-1.485l2.647 0.324zm-4.174 12.939c0.081,-0.732 0.74,-1.26 1.471,-1.18 0.732,0.08 1.26,0.739 1.18,1.471l-2.651 -0.291zm1.532 10.894l-2.652 -0.279 0.48 -4.648 0.64 -5.967 2.651 0.291 -0.639 5.955 -0.48 4.648zm0 0c-0.077,0.732 -0.733,1.263 -1.466,1.187 -0.732,-0.077 -1.263,-0.733 -1.186,-1.466l2.652 0.279zm-4.004 12.991c0.074,-0.732 0.729,-1.266 1.461,-1.192 0.733,0.074 1.266,0.729 1.192,1.462l-2.653 -0.27zm2.379 2.924l-2.653 -0.272 0.261 -2.53 0.013 -0.122 2.653 0.27 -0.012 0.125 -0.262 2.529zm0 0c-0.074,0.732 -0.73,1.265 -1.463,1.191 -0.732,-0.075 -1.265,-0.731 -1.19,-1.463l2.653 0.272zm-4.101 12.973c0.081,-0.732 0.741,-1.26 1.472,-1.178 0.732,0.081 1.259,0.741 1.178,1.472l-2.65 -0.294zm1.243 10.915l-2.639 -0.387 0.123 -0.789 0.633 -4.587 0.605 -4.857 0.035 -0.295 2.65 0.294 -0.036 0.317 -0.609 4.888 -0.639 4.627 -0.123 0.789zm0 0c-0.106,0.729 -0.785,1.233 -1.513,1.126 -0.729,-0.106 -1.233,-0.785 -1.126,-1.513l2.639 0.387z"/>
  </g>
  <g>
   <path class="fil8" d="M216.273 108.599c-0.337,-0.655 -0.079,-1.459 0.575,-1.796 0.655,-0.337 1.459,-0.079 1.796,0.575l-2.371 1.221zm3.553 1.17l-2.371 1.22 -1.182 -2.39 2.371 -1.221 1.182 2.391zm0 0c0.337,0.654 0.079,1.459 -0.575,1.796 -0.655,0.337 -1.459,0.078 -1.796,-0.576l2.371 -1.22zm3.297 13.241c-0.316,-0.664 -0.032,-1.461 0.632,-1.777 0.665,-0.315 1.462,-0.032 1.778,0.633l-2.41 1.144zm6.518 8.785l-2.472 0.999 -0.851 -2.201 -3.103 -7.383 -0.092 -0.2 2.41 -1.144 0.125 0.275 3.132 7.454 0.851 2.2zm0 0c0.276,0.683 -0.054,1.46 -0.737,1.736 -0.682,0.276 -1.46,-0.054 -1.735,-0.737l2.472 -0.999zm2.129 13.473c-0.255,-0.691 0.096,-1.459 0.786,-1.715 0.691,-0.256 1.459,0.095 1.715,0.786l-2.501 0.929zm5.786 9.292l-2.545 0.799 -0.735 -2.449 -2.439 -7.456 -0.067 -0.186 2.501 -0.929 0.09 0.253 2.46 7.519 0.735 2.449zm0 0c0.221,0.702 -0.171,1.451 -0.873,1.672 -0.702,0.22 -1.451,-0.171 -1.672,-0.873l2.545 -0.799zm1.089 13.564c-0.187,-0.712 0.237,-1.442 0.949,-1.629 0.712,-0.188 1.442,0.237 1.629,0.949l-2.578 0.68zm5.13 9.705l-2.592 0.627 -0.742 -3.217 -1.796 -7.115 2.578 -0.68 1.81 7.168 0.742 3.217zm0 0c0.173,0.716 -0.267,1.437 -0.982,1.61 -0.716,0.172 -1.438,-0.267 -1.61,-0.983l2.592 -0.627zm0.203 13.613c-0.145,-0.721 0.322,-1.425 1.044,-1.571 0.721,-0.146 1.425,0.322 1.571,1.043l-2.615 0.528zm3.119 2.091l-2.614 0.527 -0.505 -2.618 2.615 -0.528 0.504 2.619zm0 0c0.146,0.721 -0.322,1.425 -1.043,1.57 -0.721,0.146 -1.425,-0.322 -1.571,-1.043l2.614 -0.527zm-0.299 13.615c-0.122,-0.726 0.368,-1.414 1.094,-1.536 0.726,-0.122 1.414,0.368 1.536,1.094l-2.63 0.442zm4.242 10.122l-2.636 0.404 -0.885 -6.04 -0.721 -4.486 2.63 -0.442 0.727 4.523 0.885 6.041zm0 0c0.111,0.727 -0.388,1.409 -1.116,1.52 -0.728,0.111 -1.409,-0.388 -1.52,-1.116l2.636 -0.404zm-0.914 13.594c-0.094,-0.73 0.422,-1.399 1.152,-1.493 0.73,-0.093 1.4,0.423 1.493,1.153l-2.645 0.34zm3.846 10.285l-2.65 0.29 -0.237 -2.255 -0.761 -6.71 -0.198 -1.61 2.645 -0.34 0.202 1.636 0.762 6.734 0.237 2.255zm0 0c0.08,0.732 -0.449,1.391 -1.18,1.47 -0.732,0.08 -1.391,-0.449 -1.47,-1.18l2.65 -0.29zm-1.331 13.542c-0.07,-0.733 0.467,-1.385 1.2,-1.455 0.733,-0.07 1.385,0.467 1.455,1.2l-2.655 0.255zm3.622 10.378l-2.656 0.236 -0.067 -0.764 -0.547 -6.093 -0.352 -3.757 2.655 -0.255 0.352 3.768 0.548 6.1 0.067 0.765zm0 0c0.065,0.733 -0.477,1.382 -1.21,1.446 -0.733,0.065 -1.382,-0.477 -1.446,-1.21l2.656 -0.236zm-1.474 13.52c-0.066,-0.733 0.475,-1.383 1.208,-1.448 0.733,-0.066 1.383,0.475 1.448,1.208l-2.656 0.24zm2.899 2.416l-2.657 0.24 -0.242 -2.656 2.656 -0.24 0.243 2.656zm0 0c0.065,0.733 -0.476,1.383 -1.209,1.448 -0.733,0.066 -1.383,-0.475 -1.448,-1.208l2.657 -0.24zm-1.292 13.53c-0.08,-0.731 0.448,-1.39 1.18,-1.471 0.731,-0.08 1.391,0.448 1.471,1.18l-2.651 0.291zm4.064 10.242l-2.641 0.37 -0.554 -3.692 -0.598 -4.581 -0.271 -2.339 2.651 -0.291 0.267 2.305 0.592 4.536 0.554 3.692zm0 0c0.102,0.729 -0.406,1.404 -1.135,1.505 -0.729,0.102 -1.404,-0.406 -1.506,-1.135l2.641 -0.37z"/>
  </g>
  <g>
   <path class="fil8" d="M585.391 64.308c0.734,-0.066 1.383,0.475 1.449,1.208 0.066,0.733 -0.475,1.383 -1.208,1.449l-0.241 -2.657zm-2.414 2.903l-0.241 -2.657 2.655 -0.246 0.241 2.657 -2.655 0.246zm0 0c-0.733,0.066 -1.382,-0.475 -1.449,-1.208 -0.066,-0.733 0.475,-1.382 1.208,-1.449l0.241 2.657zm-13.528 -1.281c0.732,-0.08 1.39,0.45 1.47,1.182 0.08,0.732 -0.45,1.39 -1.182,1.47l-0.288 -2.652zm-10.306 3.844l-0.301 -2.65 1.761 -0.2 2.744 -0.311 2.746 -0.31 2.748 -0.305 0.608 -0.068 0.288 2.652 -0.603 0.066 -2.745 0.306 -2.742 0.309 -2.743 0.311 -1.761 0.2zm0 0c-0.732,0.083 -1.393,-0.443 -1.476,-1.175 -0.083,-0.731 0.443,-1.393 1.175,-1.475l0.301 2.65zm-13.548 -1.169c0.733,-0.08 1.392,0.449 1.471,1.181 0.08,0.732 -0.449,1.391 -1.181,1.471l-0.29 -2.652zm-10.34 3.736l-0.255 -2.655 0.963 -0.091 2.735 -0.268 2.735 -0.279 2.736 -0.288 1.426 -0.155 0.29 2.652 -1.433 0.155 -2.743 0.288 -2.745 0.28 -2.746 0.271 -0.963 0.09zm0 0c-0.733,0.07 -1.385,-0.467 -1.455,-1.2 -0.07,-0.733 0.467,-1.385 1.2,-1.455l0.255 2.655zm-13.509 -1.563c0.734,-0.05 1.372,0.504 1.423,1.238 0.05,0.734 -0.504,1.372 -1.238,1.422l-0.185 -2.66zm-10.507 3.236l-0.104 -2.665 0.181 -0.006 2.744 -0.118 2.742 -0.14 2.74 -0.161 2.204 -0.146 0.185 2.66 -2.222 0.147 -2.761 0.163 -2.762 0.142 -2.766 0.118 -0.181 0.006zm0 0c-0.736,0.028 -1.356,-0.545 -1.385,-1.281 -0.028,-0.735 0.545,-1.356 1.281,-1.384l0.104 2.665zm-13.385 -2.456c0.737,0 1.334,0.596 1.334,1.333 0,0.736 -0.596,1.334 -1.332,1.334l-0.002 -2.667zm-0.318 2.665l0.027 -2.666 0 0 0.291 0.001 0.002 2.667 -0.32 -0.002 0 0zm-2.361 -0.04l0.027 -2.666 2.361 0.04 -0.027 2.666 -2.361 -0.04zm0 0c-0.736,-0.007 -1.327,-0.61 -1.32,-1.347 0.007,-0.736 0.61,-1.326 1.347,-1.319l-0.027 2.666zm-13.202 -3.392c0.734,0.053 1.286,0.693 1.232,1.427 -0.053,0.734 -0.693,1.286 -1.427,1.233l0.195 -2.66zm-10.857 1.615l0.286 -2.652 1.799 0.2 2.807 0.293 2.786 0.269 2.765 0.242 0.414 0.033 -0.195 2.66 -0.439 -0.035 -2.789 -0.245 -2.808 -0.271 -2.826 -0.294 -1.8 -0.2zm0 0c-0.732,-0.078 -1.261,-0.736 -1.183,-1.468 0.078,-0.732 0.736,-1.262 1.469,-1.184l-0.286 2.652zm-12.91 -4.303c0.729,0.098 1.241,0.77 1.144,1.499 -0.098,0.73 -0.771,1.241 -1.5,1.144l0.356 -2.643zm-10.93 1.149l0.379 -2.639 2.674 0.386 2.879 0.41 2.877 0.404 2.121 0.29 -0.356 2.643 -2.13 -0.292 -2.885 -0.404 -2.885 -0.411 -2.674 -0.387zm0 0c-0.729,-0.105 -1.235,-0.781 -1.13,-1.509 0.104,-0.729 0.781,-1.235 1.509,-1.13l-0.379 2.639zm-12.812 -4.571c0.728,0.107 1.233,0.784 1.126,1.513 -0.106,0.728 -0.784,1.233 -1.512,1.127l0.386 -2.64zm-10.937 1.147l0.363 -2.643 0.857 0.116 2.786 0.387 2.805 0.397 2.824 0.406 1.302 0.19 -0.386 2.64 -1.299 -0.19 -2.817 -0.406 -2.799 -0.397 -2.778 -0.385 -0.858 -0.115zm0 0c-0.729,-0.1 -1.24,-0.774 -1.14,-1.503 0.1,-0.729 0.774,-1.24 1.503,-1.14l-0.363 2.643zm-12.906 -4.286c0.732,0.08 1.26,0.739 1.18,1.471 -0.081,0.731 -0.74,1.26 -1.471,1.179l0.291 -2.65zm-2.334 2.433l0.271 -2.654 2.063 0.221 -0.291 2.65 -2.043 -0.217zm0 0c-0.732,-0.074 -1.265,-0.73 -1.191,-1.462 0.074,-0.733 0.73,-1.266 1.462,-1.192l-0.271 2.654z"/>
  </g>
  <g>
   <path class="fil8" d="M740.804 935.74c0.733,-0.066 1.382,0.475 1.448,1.208 0.066,0.733 -0.474,1.383 -1.208,1.449l-0.24 -2.657zm-2.416 2.884l-0.241 -2.656 2.657 -0.228 0.24 2.657 -2.656 0.227zm0 0c-0.733,0.066 -1.383,-0.474 -1.449,-1.208 -0.066,-0.733 0.475,-1.382 1.208,-1.448l0.241 2.656zm-13.518 -1.554c0.734,-0.059 1.378,0.487 1.437,1.221 0.059,0.734 -0.487,1.378 -1.221,1.437l-0.216 -2.658zm-10.433 3.46l-0.193 -2.66 2.116 -0.146 8.51 -0.654 0.216 2.658 -8.532 0.656 -2.117 0.146zm0 0c-0.734,0.053 -1.374,-0.499 -1.426,-1.233 -0.053,-0.734 0.499,-1.374 1.233,-1.427l0.193 2.66zm-13.487 -1.762c0.735,-0.047 1.37,0.51 1.417,1.245 0.047,0.734 -0.509,1.37 -1.244,1.417l-0.173 -2.662zm-10.474 3.319l-0.173 -2.662 10.647 -0.657 0.173 2.662 -10.647 0.657zm0 0c-0.735,0.047 -1.37,-0.51 -1.417,-1.245 -0.048,-0.734 0.509,-1.37 1.244,-1.417l0.173 2.662zm-13.479 -1.922c0.735,-0.042 1.367,0.519 1.41,1.254 0.042,0.734 -0.519,1.367 -1.254,1.409l-0.156 -2.663zm-10.507 3.198l-0.139 -2.663 9.051 -0.446 1.595 -0.089 0.156 2.663 -1.613 0.089 -9.05 0.446zm0 0c-0.735,0.038 -1.363,-0.528 -1.401,-1.262 -0.038,-0.735 0.528,-1.363 1.262,-1.401l0.139 2.663zm-13.452 -2.05c0.735,-0.034 1.361,0.535 1.395,1.27 0.033,0.736 -0.535,1.361 -1.271,1.395l-0.124 -2.665zm-2.539 2.781l-0.125 -2.664 2.664 -0.117 0.124 2.665 -2.663 0.116zm0 0c-0.736,0.034 -1.361,-0.534 -1.395,-1.27 -0.034,-0.735 0.535,-1.36 1.27,-1.394l0.125 2.664zm-13.442 -2.125c0.735,-0.03 1.357,0.542 1.387,1.277 0.03,0.736 -0.541,1.358 -1.277,1.388l-0.11 -2.665zm-10.558 3.058l-0.096 -2.664 3.901 -0.132 6.753 -0.262 0.11 2.665 -6.767 0.262 -3.901 0.131zm0 0c-0.735,0.026 -1.354,-0.548 -1.38,-1.284 -0.026,-0.735 0.549,-1.354 1.284,-1.38l0.096 2.664zm-13.416 -2.221c0.736,-0.023 1.352,0.555 1.375,1.292 0.022,0.736 -0.555,1.352 -1.292,1.374l-0.083 -2.666zm-10.58 2.977l-0.083 -2.666 10.663 -0.311 0.083 2.666 -10.663 0.311zm0 0c-0.736,0.023 -1.352,-0.555 -1.374,-1.291 -0.023,-0.736 0.555,-1.352 1.291,-1.375l0.083 2.666zm-13.408 -2.319c0.736,-0.019 1.349,0.561 1.369,1.297 0.02,0.737 -0.561,1.35 -1.297,1.37l-0.072 -2.667zm-10.599 2.914l-0.06 -2.666 3.773 -0.077 6.886 -0.171 0.072 2.667 -6.898 0.17 -3.773 0.077zm0 0c-0.736,0.016 -1.347,-0.567 -1.363,-1.303 -0.016,-0.737 0.567,-1.348 1.303,-1.363l0.06 2.666zm-13.386 -2.396c0.736,-0.014 1.344,0.572 1.357,1.308 0.013,0.737 -0.572,1.345 -1.309,1.358l-0.048 -2.666zm-2.618 2.709l-0.049 -2.666 2.667 -0.043 0.048 2.666 -2.666 0.043zm0 0c-0.736,0.014 -1.344,-0.572 -1.357,-1.308 -0.014,-0.737 0.572,-1.345 1.308,-1.358l0.049 2.666zm-13.382 -2.449c0.737,-0.013 1.344,0.573 1.358,1.309 0.013,0.736 -0.573,1.344 -1.309,1.358l-0.049 -2.667zm-10.623 2.796l-0.038 -2.666 10.593 -0.128 0.068 -0.002 0.049 2.667 -0.079 0.001 -10.593 0.128zm0 0c-0.737,0.01 -1.342,-0.578 -1.352,-1.314 -0.011,-0.737 0.578,-1.342 1.314,-1.352l0.038 2.666zm-13.366 -2.534c0.736,-0.007 1.339,0.583 1.346,1.32 0.007,0.736 -0.583,1.339 -1.32,1.346l-0.026 -2.666zm-10.647 2.748l-0.016 -2.666 0.928 -0.003 9.735 -0.079 0.026 2.666 -9.745 0.079 -0.928 0.003zm0 0c-0.736,0.004 -1.337,-0.589 -1.341,-1.325 -0.004,-0.737 0.589,-1.337 1.325,-1.341l0.016 2.666zm-13.35 -2.614c0.737,-0.003 1.337,0.589 1.341,1.326 0.004,0.736 -0.589,1.337 -1.325,1.341l-0.016 -2.667zm-10.657 2.677l-0.005 -2.666 8.018 0.001 2.644 -0.012 0.016 2.667 -2.655 0.011 -8.018 -0.001zm0 0c-0.736,0.001 -1.335,-0.595 -1.336,-1.331 0,-0.736 0.595,-1.334 1.331,-1.335l0.005 2.666zm-13.334 -2.687c0.736,0.002 1.332,0.6 1.33,1.336 -0.002,0.737 -0.6,1.332 -1.336,1.33l0.006 -2.666zm-2.673 2.655l0.006 -2.666 2.667 0.011 -0.006 2.666 -2.667 -0.011zm0 0c-0.736,-0.001 -1.332,-0.6 -1.33,-1.336 0.001,-0.736 0.6,-1.331 1.336,-1.33l-0.006 2.666zm-13.323 -2.739c0.736,0.005 1.329,0.606 1.324,1.342 -0.004,0.736 -0.605,1.329 -1.341,1.324l0.017 -2.666zm-10.684 2.575l0.017 -2.666 10.667 0.091 -0.017 2.666 -10.667 -0.091zm0 0c-0.737,-0.005 -1.329,-0.606 -1.325,-1.342 0.005,-0.736 0.606,-1.329 1.342,-1.324l-0.017 2.666zm-13.311 -2.829c0.736,0.008 1.326,0.611 1.319,1.348 -0.008,0.736 -0.611,1.326 -1.348,1.319l0.029 -2.667zm-10.702 2.507l0.041 -2.666 4.839 0.084 5.822 0.075 -0.029 2.667 -5.834 -0.076 -4.839 -0.084zm0 0c-0.736,-0.011 -1.324,-0.618 -1.313,-1.354 0.011,-0.736 0.618,-1.323 1.354,-1.312l-0.041 2.666zm-13.285 -2.907c0.736,0.014 1.32,0.623 1.306,1.36 -0.014,0.736 -0.623,1.32 -1.36,1.306l0.054 -2.666zm-10.718 2.429l0.053 -2.666 10.665 0.237 -0.054 2.666 -10.664 -0.237zm0 0c-0.736,-0.014 -1.321,-0.624 -1.306,-1.36 0.014,-0.736 0.623,-1.321 1.359,-1.306l-0.053 2.666zm-13.271 -3.009c0.736,0.018 1.318,0.63 1.3,1.366 -0.018,0.737 -0.63,1.318 -1.366,1.3l0.066 -2.666zm-2.732 2.594l0.067 -2.666 2.665 0.072 -0.066 2.666 -2.666 -0.072zm0 0c-0.736,-0.018 -1.318,-0.63 -1.3,-1.366 0.019,-0.737 0.63,-1.318 1.367,-1.3l-0.067 2.666zm-13.256 -3.078c0.736,0.021 1.315,0.636 1.293,1.372 -0.021,0.737 -0.636,1.315 -1.372,1.294l0.079 -2.666zm-10.748 2.295l0.095 -2.664 4.401 0.167 6.252 0.202 -0.079 2.666 -6.268 -0.204 -4.401 -0.167zm0 0c-0.735,-0.026 -1.311,-0.644 -1.285,-1.379 0.026,-0.736 0.645,-1.311 1.38,-1.285l-0.095 2.664zm-13.222 -3.186c0.735,0.029 1.308,0.651 1.278,1.386 -0.03,0.736 -0.652,1.308 -1.387,1.278l0.109 -2.664zm-10.767 2.194l0.109 -2.665 10.658 0.471 -0.109 2.664 -10.658 -0.47zm0 0c-0.735,-0.03 -1.307,-0.651 -1.277,-1.387 0.029,-0.735 0.651,-1.307 1.386,-1.278l-0.109 2.665zm-13.2 -3.327c0.735,0.035 1.304,0.66 1.269,1.396 -0.035,0.735 -0.66,1.303 -1.395,1.269l0.126 -2.665zm-10.787 2.07l0.145 -2.663 7.471 0.433 3.171 0.16 -0.126 2.665 -3.19 -0.162 -7.471 -0.433zm0 0c-0.735,-0.039 -1.298,-0.669 -1.259,-1.404 0.039,-0.734 0.669,-1.298 1.404,-1.259l-0.145 2.663zm-13.155 -3.485c0.735,0.045 1.294,0.678 1.249,1.413 -0.045,0.735 -0.678,1.294 -1.413,1.249l0.164 -2.662zm-2.825 2.487l0.164 -2.661 2.661 0.174 -0.164 2.662 -2.661 -0.175zm0 0c-0.734,-0.045 -1.293,-0.678 -1.248,-1.413 0.045,-0.734 0.678,-1.293 1.412,-1.248l-0.164 2.661zm-13.126 -3.616c0.734,0.051 1.289,0.689 1.237,1.423 -0.051,0.734 -0.688,1.288 -1.422,1.237l0.185 -2.66zm-10.831 1.799l0.211 -2.659 6.7 0.566 3.92 0.294 -0.185 2.66 -3.946 -0.295 -6.7 -0.566zm0 0c-0.734,-0.059 -1.282,-0.701 -1.224,-1.435 0.059,-0.734 0.701,-1.282 1.435,-1.224l-0.211 2.659zm-13.054 -3.867c0.733,0.065 1.274,0.715 1.209,1.448 -0.065,0.733 -0.715,1.274 -1.448,1.208l0.239 -2.656zm-4.493 2.248l0.271 -2.654 4.222 0.406 -0.239 2.656 -4.254 -0.408zm0 0c-0.733,-0.074 -1.266,-0.73 -1.192,-1.463 0.074,-0.732 0.73,-1.265 1.463,-1.191l-0.271 2.654z"/>
  </g>
 </g>
</svg>
